<?xml version="1.0" encoding="UTF-8"?>
<svg version="1.1" xmlns="http://www.w3.org/2000/svg" width="599" height="159">
<path d="M0 0 C197.67 0 395.34 0 599 0 C599 52.47 599 104.94 599 159 C401.33 159 203.66 159 0 159 C0 106.53 0 54.06 0 0 Z " fill="#131619" transform="translate(0,0)"/>
<path d="M0 0 C9.4978125 -0.12375 9.4978125 -0.12375 19.1875 -0.25 C21.1574292 -0.28641602 23.1273584 -0.32283203 25.15698242 -0.36035156 C38.67081615 -0.50585277 51.36591377 0.65615515 62 10 C70.2461617 18.54125298 74.41945339 29.04848527 74.27734375 40.859375 C73.16672015 53.43601413 67.63137017 62.50399399 58.1484375 70.4609375 C50.06560536 76.25118452 41.98111854 77.15371633 32.32421875 77.09765625 C31.09330505 77.09614563 31.09330505 77.09614563 29.83752441 77.09460449 C26.78750195 77.08939319 23.7374995 77.07543197 20.6875 77.0625 C13.860625 77.041875 7.03375 77.02125 0 77 C0 51.59 0 26.18 0 0 Z " fill="#FBFBFB" transform="translate(415,14)"/>
<path d="M0 0 C4.88717527 0.41931385 8.47337214 2.03960644 12.75 4.375 C13.87921875 4.98085937 15.0084375 5.58671875 16.171875 6.2109375 C19 8 19 8 21 11 C17.90454428 12.70385928 14.79740166 14.38517398 11.6875 16.0625 C10.80642578 16.54783203 9.92535156 17.03316406 9.01757812 17.53320312 C7.74624023 18.21479492 7.74624023 18.21479492 6.44921875 18.91015625 C5.66893311 19.33433838 4.88864746 19.75852051 4.0847168 20.19555664 C2 21 2 21 -1 20 C-1 18.35 -1 16.7 -1 15 C-186.46 14.67 -371.92 14.34 -563 14 C-563.66 12.68 -564.32 11.36 -565 10 C-561.97725048 6.97725048 -558.54687385 7.69621065 -554.48968506 7.69007874 C-553.14059354 7.67634888 -553.14059354 7.67634888 -551.76424766 7.66234165 C-548.70188035 7.6338131 -545.63961401 7.6198014 -542.57714844 7.60571289 C-540.3547938 7.58844736 -538.1324452 7.57039002 -535.91010284 7.55161095 C-529.71584481 7.50222344 -523.52156835 7.46621316 -517.32720661 7.43269229 C-513.3311498 7.40999594 -509.33512667 7.38375457 -505.3391037 7.35585213 C-429.69660297 6.82962196 -354.05149936 6.67486779 -278.40756768 6.4899555 C-263.22027362 6.45282439 -248.03298677 6.41348274 -232.84570312 6.37231445 C-231.84056444 6.36959018 -230.83542575 6.36686591 -229.79982832 6.36405908 C-227.7725105 6.35856287 -225.74519269 6.35306641 -223.71787487 6.34756971 C-222.21510698 6.34349563 -222.21510698 6.34349563 -220.68198013 6.33933926 C-219.68141665 6.33662589 -218.68085318 6.33391253 -217.64996959 6.33111694 C-201.78331009 6.28815965 -185.91664625 6.2468424 -170.04998179 6.20576129 C-164.4545581 6.19126542 -158.85913492 6.17659469 -153.26371206 6.16178166 C-102.50904011 6.02759573 -51.75484896 5.97393773 -1 6 C-1.0309375 4.7934375 -1.0309375 4.7934375 -1.0625 3.5625 C-1 1 -1 1 0 0 Z " fill="#38E08B" transform="translate(573,98)"/>
<path d="M0 0 C10.085625 -0.0928125 10.085625 -0.0928125 20.375 -0.1875 C22.47665527 -0.21481201 24.57831055 -0.24212402 26.74365234 -0.27026367 C28.44107492 -0.27903935 30.13850389 -0.28668072 31.8359375 -0.29296875 C32.6916333 -0.30831665 33.5473291 -0.32366455 34.42895508 -0.33947754 C43.01029768 -0.34313125 51.12621335 1.2075126 57.53125 7.25 C62.65446914 13.3542611 64.36406474 20.19607768 64.28125 28.01171875 C63.70845531 34.09766235 61.55358772 39.11050142 57.6875 43.8125 C55.60427778 45.50814599 53.51958973 47.0851679 51.33203125 48.63671875 C50.70659424 49.08104248 50.08115723 49.52536621 49.43676758 49.9831543 C48.96263428 50.31871338 48.48850098 50.65427246 48 51 C49.89549595 53.6877381 51.79145951 56.37514602 53.6875 59.0625 C54.48317383 60.19075195 54.48317383 60.19075195 55.29492188 61.34179688 C55.82021484 62.08623047 56.34550781 62.83066406 56.88671875 63.59765625 C57.40669434 64.33516113 57.92666992 65.07266602 58.46240234 65.83251953 C59.9267596 67.89675639 61.40965545 69.94659851 62.89453125 71.99609375 C65 75 65 75 65 76 C59.29480632 77.38265404 53.52687178 78.49354618 48 76 C44.94072657 72.70094568 42.795467 68.95265666 40.5625 65.0625 C36.74935124 57.82861009 36.74935124 57.82861009 30.59765625 52.85986328 C25.06450999 51.67373235 20.81241822 52.36919492 15 53 C15 60.59 15 68.18 15 76 C10.05 76 5.1 76 0 76 C0 50.92 0 25.84 0 0 Z " fill="#FCFDFC" transform="translate(49,15)"/>
<path d="M0 0 C3.27030659 1.94100931 5.0402051 4.16261332 7.171875 7.2890625 C7.60757813 6.89074219 8.04328125 6.49242187 8.4921875 6.08203125 C16.25564258 -0.82441905 23.07102393 -3.08034718 33.39453125 -2.9140625 C39.85525021 -2.4415486 43.6879422 -0.58978917 48.046875 4.2265625 C51.38581694 8.25658777 53.42952184 11.45851155 53.39892578 16.78222656 C53.39877472 17.66283752 53.39862366 18.54344849 53.39846802 19.45074463 C53.38814545 20.39254578 53.37782288 21.33434692 53.3671875 22.3046875 C53.3643576 23.27565369 53.36152771 24.24661987 53.35861206 25.24700928 C53.34742792 28.34448635 53.32232642 31.441673 53.296875 34.5390625 C53.28684292 36.64062082 53.27771747 38.74218368 53.26953125 40.84375 C53.24749434 45.99229919 53.21297645 51.14063163 53.171875 56.2890625 C48.551875 56.2890625 43.931875 56.2890625 39.171875 56.2890625 C39.142146 54.75366821 39.142146 54.75366821 39.11181641 53.18725586 C39.03534778 49.36459075 38.94669633 45.54228595 38.85449219 41.7199707 C38.81637201 40.07030385 38.7814905 38.42055868 38.75 36.77075195 C38.7039784 34.38985329 38.64604865 32.00948598 38.5859375 29.62890625 C38.57438629 28.89945297 38.56283508 28.16999969 38.55093384 27.41844177 C38.41906049 22.77129334 37.77682524 18.70422485 36.171875 14.2890625 C33.01628676 11.35887342 30.42302157 10.04152523 26.171875 9.7890625 C21.96030208 10.01453868 19.41364732 11.57502056 16.171875 14.2890625 C12.11045883 18.910674 11.98752971 23.31105584 11.85546875 29.23828125 C11.83468765 30.01089798 11.81390656 30.78351471 11.79249573 31.57954407 C11.72716462 34.0451273 11.66819185 36.51081611 11.609375 38.9765625 C11.56617413 40.64909941 11.52255934 42.32162569 11.47851562 43.99414062 C11.3715001 48.09234 11.27018643 52.19064546 11.171875 56.2890625 C6.221875 56.2890625 1.271875 56.2890625 -3.828125 56.2890625 C-3.857854 54.60949463 -3.857854 54.60949463 -3.88818359 52.89599609 C-3.96450011 48.72487655 -4.0531767 44.55409403 -4.14550781 40.38330078 C-4.18369022 38.58128535 -4.21856151 36.77919649 -4.25 34.97705078 C-4.29588463 32.38026769 -4.35383935 29.7839854 -4.4140625 27.1875 C-4.42561371 26.3872641 -4.43716492 25.5870282 -4.44906616 24.76254272 C-4.56626889 20.27765251 -4.95077663 16.44748144 -6.828125 12.2890625 C-11.08054251 10.11340703 -15.11131325 9.78368981 -19.828125 10.2890625 C-24.13226251 12.60667501 -27.76463238 15.1515017 -29.38256836 19.92480469 C-30.02010788 23.30778153 -30.06521458 26.68556463 -30.14453125 30.1171875 C-30.16531235 30.86619324 -30.18609344 31.61519897 -30.20750427 32.38690186 C-30.27269588 34.77086538 -30.33174283 37.15493562 -30.390625 39.5390625 C-30.43383916 41.15886504 -30.47745437 42.77865693 -30.52148438 44.3984375 C-30.62834596 48.36187082 -30.72969833 52.3254111 -30.828125 56.2890625 C-35.448125 56.2890625 -40.068125 56.2890625 -44.828125 56.2890625 C-44.828125 37.1490625 -44.828125 18.0090625 -44.828125 -1.7109375 C-40.208125 -1.7109375 -35.588125 -1.7109375 -30.828125 -1.7109375 C-30.498125 -0.0609375 -30.168125 1.5890625 -29.828125 3.2890625 C-29.28542969 2.93972656 -28.74273437 2.59039062 -28.18359375 2.23046875 C-27.46816406 1.77542969 -26.75273437 1.32039063 -26.015625 0.8515625 C-25.30792969 0.39910156 -24.60023438 -0.05335937 -23.87109375 -0.51953125 C-16.50085466 -4.81766303 -7.45804362 -3.30149065 0 0 Z " fill="#FCFCFC" transform="translate(311.828125,34.7109375)"/>
<path d="M0 0 C6.84459271 4.06148011 11.47626967 9.59677775 14.0078125 17.19140625 C14.15742714 20.10026007 14.23899561 22.96934483 14.2578125 25.87890625 C14.2784375 26.65685547 14.2990625 27.43480469 14.3203125 28.23632812 C14.37736134 36.78652259 11.92002264 43.08283656 6.109375 49.36328125 C-1.45759753 55.94570346 -9.81921297 57.58071501 -19.54296875 57.4609375 C-28.24207851 56.78116562 -34.84566858 53.41258268 -41.11328125 47.4140625 C-46.7796172 40.71105802 -48.37962692 32.69435688 -48.265625 24.1328125 C-47.4739794 15.61696772 -43.25048178 8.85929541 -36.9921875 3.19140625 C-34.70008154 1.54930049 -32.55983903 0.42768291 -29.9921875 -0.80859375 C-29.26644531 -1.164375 -28.54070312 -1.52015625 -27.79296875 -1.88671875 C-19.33519167 -4.67058959 -7.96537007 -3.87468002 0 0 Z " fill="#FBFBFB" transform="translate(169.9921875,34.80859375)"/>
<path d="M0 0 C18.48 0 36.96 0 56 0 C56 4.29 56 8.58 56 13 C42.14 13 28.28 13 14 13 C14 19.6 14 26.2 14 33 C26.54 33 39.08 33 52 33 C52 36.96 52 40.92 52 45 C39.46 45 26.92 45 14 45 C14 51.27 14 57.54 14 64 C28.52 64 43.04 64 58 64 C58 68.29 58 72.58 58 77 C38.86 77 19.72 77 0 77 C0 51.59 0 26.18 0 0 Z " fill="#F9F9F9" transform="translate(502,14)"/>
<path d="M0 0 C28.26315789 0 28.26315789 0 35.8125 6.375 C43.01116291 15.01339549 43.77163987 22.10757633 43 33 C41.5911101 39.29962235 38.24281305 43.27724924 33.48828125 47.4921875 C22.38341309 54.22135408 13.48098067 52 0 52 C0 34.84 0 17.68 0 0 Z " fill="#121518" transform="translate(430,27)"/>
<path d="M0 0 C-0.83994419 12.82200518 -0.83994419 12.82200518 -3.515625 15.5390625 C-4.71995919 16.09933971 -5.94269689 16.62154146 -7.1796875 17.10546875 C-10.82187937 18.89530123 -12.53836347 22.34590867 -14 26 C-15.12719061 31.66561597 -14.00736617 36.28466078 -11.21484375 41.2734375 C-9.03135631 44.37665759 -6.35650773 46.32174614 -3 48 C2.7343071 48.48313913 8.12457591 48.69094572 13.5625 46.6875 C16.18028072 43.80122895 16.67680332 42.10870673 17.75 38.4375 C19.33961062 33.37230005 19.33961062 33.37230005 22.328125 31.6875 C25 30.9375 25 30.9375 27.5625 30.46484375 C30.02129644 29.99593866 31.82514682 29.21328615 34 28 C34.74587934 37.55139938 32.87210668 45.84185348 26.8125 53.4375 C21.60851574 58.91065586 14.56928235 61.62232219 7.1171875 62.23828125 C-3.21781079 62.47486555 -11.06277474 60.28482475 -19.1796875 53.76171875 C-26.13308218 47.03214579 -28.90225846 39.59460401 -29.375 30.125 C-29.15118426 21.54100791 -25.624586 14.82752483 -19.77734375 8.68359375 C-14.55573448 3.73741003 -7.38309294 0 0 0 Z " fill="#2CD893" transform="translate(220,30)"/>
<path d="M0 0 C6.26168637 2.83328371 12.06021604 7.59643922 16.890625 12.41796875 C16.890625 13.40796875 16.890625 14.39796875 16.890625 15.41796875 C16.25125 15.25296875 15.611875 15.08796875 14.953125 14.91796875 C13.08235679 14.37870208 13.08235679 14.37870208 11.890625 14.41796875 C11.94863281 15.11921875 12.00664062 15.82046875 12.06640625 16.54296875 C12.34593744 22.42111031 12.16151477 26.83857094 8.63671875 31.69140625 C4.39721036 35.88349284 -1.18749814 38.60943738 -7.171875 38.98046875 C-14.12670699 37.98692132 -19.20689019 36.06326027 -23.609375 30.41796875 C-27.07768898 25.48525553 -27.8806592 20.40356866 -27.109375 14.41796875 C-24.96955414 7.7784103 -21.19614257 3.85629226 -15.25 0.30859375 C-10.5458818 -1.64859411 -4.85992521 -1.34097936 0 0 Z " fill="#111616" transform="translate(247.109375,22.58203125)"/>
<path d="M0 0 C4.62 0 9.24 0 14 0 C14 25.08 14 50.16 14 76 C9.38 76 4.76 76 0 76 C0 50.92 0 25.84 0 0 Z " fill="#FEFEFE" transform="translate(382,15)"/>
<path d="M0 0 C0.84629199 0.00582568 1.69258399 0.01165137 2.56452119 0.01765358 C3.46052801 0.01594473 4.35653483 0.01423589 5.27969337 0.01247525 C8.30003929 0.0091653 11.32016599 0.02020874 14.34049165 0.03111184 C16.49839463 0.03167563 18.656298 0.03136002 20.81420076 0.03022683 C26.68789528 0.02965105 32.56150874 0.04144164 38.43518436 0.05537474 C44.56779039 0.06784475 50.7003981 0.06904965 56.83301485 0.07142556 C68.45294511 0.07765132 80.07283791 0.09407694 91.69275165 0.11412454 C104.91865967 0.13644948 118.14456946 0.14746839 131.37049162 0.15751541 C158.58365696 0.17844224 185.79678901 0.21363946 213.00992525 0.25816262 C213.00992525 0.58816262 213.00992525 0.91816262 213.00992525 1.25816262 C211.94947999 1.26624947 210.88903474 1.27433632 209.79645479 1.28266823 C199.81942327 1.36003799 189.84252966 1.44775374 179.86567819 1.5456897 C174.73605386 1.59570874 169.60645069 1.64203812 164.47672212 1.68003762 C159.52942369 1.71681978 154.58229995 1.76316011 149.63515031 1.81622612 C147.74447754 1.83480778 145.85376727 1.84990168 143.9630388 1.86150658 C141.321746 1.87830477 138.68085661 1.90732352 136.0397104 1.93931496 C134.85827707 1.94255524 134.85827707 1.94255524 133.65297639 1.94586098 C129.36880259 1.85991401 129.36880259 1.85991401 126.00992525 4.25816262 C156.69992525 4.58816262 187.38992525 4.91816262 219.00992525 5.25816262 C219.00992525 5.58816262 219.00992525 5.91816262 219.00992525 6.25816262 C144.75992525 6.25816262 70.50992525 6.25816262 -5.99007475 6.25816262 C-6.65007475 4.93816262 -7.31007475 3.61816262 -7.99007475 2.25816262 C-5.37852323 -0.3533889 -3.5562178 0.01846682 0 0 Z " fill="#04F6F4" transform="translate(15.990074753761292,105.74183738231659)"/>
<path d="M0 0 C4.1796989 2.8497947 7.11864324 5.98092971 8.75 10.875 C9.44531531 17.93074064 9.20001237 24.10495338 4.75 29.875 C0.02665444 33.63439749 -3.95831323 35.30139171 -10.0546875 35.22265625 C-15.1797037 34.41104336 -19.12067713 31.36862057 -22.1875 27.3125 C-24.93878597 21.00072631 -25.34299407 14.09326032 -23.125 7.5625 C-17.41997908 -0.61469665 -9.44251274 -3.2685621 0 0 Z " fill="#121518" transform="translate(161.25,45.125)"/>
<path d="M0 0 C23.96367447 -0.53650017 23.96367447 -0.53650017 29.671875 4.46484375 C33.19094909 8.50782494 34.36492709 11.48362232 34.27734375 16.8359375 C33.78108228 20.70817486 32.34285473 22.85564234 30 26 C25.17372218 29.01642364 20.86374027 30.13374192 15.234375 30.09765625 C14.03119629 30.09390991 14.03119629 30.09390991 12.80371094 30.09008789 C11.79598633 30.08098389 10.78826172 30.07187988 9.75 30.0625 C6.5325 30.041875 3.315 30.02125 0 30 C0 20.1 0 10.2 0 0 Z " fill="#131619" transform="translate(64,26)"/>
<path d="M0 0 C4.88717527 0.41931385 8.47337214 2.03960644 12.75 4.375 C13.87921875 4.98085937 15.0084375 5.58671875 16.171875 6.2109375 C19 8 19 8 21 11 C17.90454428 12.70385928 14.79740166 14.38517398 11.6875 16.0625 C10.36588867 16.79049805 10.36588867 16.79049805 9.01757812 17.53320312 C8.17001953 17.98759766 7.32246094 18.44199219 6.44921875 18.91015625 C5.66893311 19.33433838 4.88864746 19.75852051 4.0847168 20.19555664 C2 21 2 21 -1 20 C-1 18.35 -1 16.7 -1 15 C-32.35 14.67 -63.7 14.34 -96 14 C-96 13.67 -96 13.34 -96 13 C-95.15236084 12.96241577 -95.15236084 12.96241577 -94.28759766 12.92407227 C-91.73316258 12.80820044 -89.1791045 12.68543463 -86.625 12.5625 C-85.29082031 12.50352539 -85.29082031 12.50352539 -83.9296875 12.44335938 C-82.65351563 12.38051758 -82.65351563 12.38051758 -81.3515625 12.31640625 C-80.56604004 12.27974854 -79.78051758 12.24309082 -78.97119141 12.20532227 C-76.92476504 12.109109 -76.92476504 12.109109 -75 11 C-75 10.34 -75 9.68 -75 9 C-78.3 8.67 -81.6 8.34 -85 8 C-85 7.67 -85 7.34 -85 7 C-80.35797555 6.08838643 -75.87264188 5.86252958 -71.15869141 5.88647461 C-70.01620941 5.88625557 -70.01620941 5.88625557 -68.85064697 5.8860321 C-66.35092246 5.88672482 -63.85127388 5.89448701 -61.3515625 5.90234375 C-59.61135906 5.90421021 -57.87115509 5.90563304 -56.13095093 5.90663147 C-51.56401097 5.91043869 -46.99710311 5.92025358 -42.43017578 5.93133545 C-37.76465285 5.94158823 -33.09912471 5.94613736 -28.43359375 5.95117188 C-19.28904844 5.96187753 -10.1445269 5.9789323 -1 6 C-1.020625 5.195625 -1.04125 4.39125 -1.0625 3.5625 C-1 1 -1 1 0 0 Z " fill="#77F050" transform="translate(573,98)"/>
<path d="M0 0 C17.09147207 -0.02350338 34.182939 -0.04106392 51.2744236 -0.05181217 C59.21273976 -0.05693846 67.15104581 -0.06391002 75.08935547 -0.07543945 C82.01944943 -0.08549966 88.94953606 -0.09187999 95.87963712 -0.09408849 C99.53899571 -0.09537664 103.19833332 -0.09833905 106.85768509 -0.10573006 C123.26422758 -0.13762297 139.6164523 0.04823989 156 1 C156 1.33 156 1.66 156 2 C146.87876505 3.25610227 138.12752383 2.74440282 129 2 C129.33 3.32 129.66 4.64 130 6 C90.07 6 50.14 6 9 6 C9.33 5.34 9.66 4.68 10 4 C8.906875 3.896875 7.81375 3.79375 6.6875 3.6875 C2.94024845 2.98885988 2.34037259 2.68602762 0 0 Z " fill="#18C9A2" transform="translate(132,105)"/>
<path d="M0 0 C2.3335131 -0.00161374 4.66701633 -0.00517046 7.00052643 -0.00918579 C10.70773611 -0.01505977 14.41490461 -0.01525269 18.12211609 -0.01093674 C20.14030205 -0.00947746 22.15848971 -0.01238615 24.17667389 -0.01544189 C30.69167347 0.00110669 37.00657087 0.24359981 43.4638443 1.12338257 C42.44736481 2.60110474 42.44736481 2.60110474 40.4638443 4.12338257 C37.80615104 4.40961251 35.38466948 4.51271478 32.72751617 4.47982788 C31.93783447 4.48187225 31.14815277 4.48391663 30.33454132 4.48602295 C27.70032875 4.48904796 25.06673384 4.4704409 22.4325943 4.45150757 C20.56691389 4.44844096 18.70123118 4.44657171 16.8355484 4.4458313 C12.89092168 4.44121098 8.94649707 4.42676452 5.00193024 4.40463257 C0.08687038 4.37711884 -4.82802738 4.36557856 -9.74315643 4.36083221 C-36.6846054 4.33205929 -63.60528737 3.8603937 -90.5361557 3.12338257 C-90.5361557 2.46338257 -90.5361557 1.80338257 -90.5361557 1.12338257 C-60.35627359 0.41987137 -30.18760492 0.01373971 0 0 Z " fill="#01CDD6" transform="translate(100.5361557006836,106.87661743164063)"/>
<path d="M0 0 C1.9375 0.1875 1.9375 0.1875 4 1 C6.02755186 3.93995019 6 5.27704003 6 9 C6.74636719 8.98839844 7.49273437 8.97679687 8.26171875 8.96484375 C11 10 11 10 12.06884766 11.67626953 C13.07682547 13.94538446 13.96353374 16.22924835 14.8125 18.5625 C15.12380859 19.36880859 15.43511719 20.17511719 15.75585938 21.00585938 C16.52173646 22.9971398 17.26322944 24.9977676 18 27 C20.8505108 21.40037997 23.60078508 15.80862559 26 10 C27.32 10 28.64 10 30 10 C28.26628579 15.58641245 26.29423645 21.06787618 24.125 26.5 C23.65320313 27.7065625 23.18140625 28.913125 22.6953125 30.15625 C22.13585937 31.0946875 21.57640625 32.033125 21 33 C18.525 33.495 18.525 33.495 16 34 C13.03 27.07 10.06 20.14 7 13 C7.33 14.98 7.66 16.96 8 19 C7.34 19 6.68 19 6 19 C6 23.95 6 28.9 6 34 C3.69 34 1.38 34 -1 34 C-1.05785647 30.04172765 -1.09354717 26.0835633 -1.125 22.125 C-1.14175781 20.99707031 -1.15851563 19.86914062 -1.17578125 18.70703125 C-1.18222656 17.63066406 -1.18867188 16.55429688 -1.1953125 15.4453125 C-1.20578613 14.45031738 -1.21625977 13.45532227 -1.22705078 12.43017578 C-1 10 -1 10 1 8 C0.34 7.34 -0.32 6.68 -1 6 C-1.1875 3.4375 -1.1875 3.4375 -1 1 C-0.67 0.67 -0.34 0.34 0 0 Z " fill="#153F36" transform="translate(394,122)"/>
<path d="M0 0 C6.26168637 2.83328371 12.06021604 7.59643922 16.890625 12.41796875 C16.890625 13.40796875 16.890625 14.39796875 16.890625 15.41796875 C16.25125 15.25296875 15.611875 15.08796875 14.953125 14.91796875 C13.08235679 14.37870208 13.08235679 14.37870208 11.890625 14.41796875 C11.94863281 15.11921875 12.00664062 15.82046875 12.06640625 16.54296875 C12.34593744 22.42111031 12.16151477 26.83857094 8.63671875 31.69140625 C4.39721036 35.88349284 -1.18749814 38.60943738 -7.171875 38.98046875 C-14.12670699 37.98692132 -19.20689019 36.06326027 -23.609375 30.41796875 C-27.07768898 25.48525553 -27.8806592 20.40356866 -27.109375 14.41796875 C-24.96955414 7.7784103 -21.19614257 3.85629226 -15.25 0.30859375 C-10.5458818 -1.64859411 -4.85992521 -1.34097936 0 0 Z M-23.109375 10.41796875 C-24.95899354 15.96682438 -24.90835102 21.35950115 -22.484375 26.73046875 C-20.04968236 31.06456699 -16.80283558 33.37533885 -12.171875 35.16796875 C-6.28232518 35.88185358 -2.16586304 35.71567834 2.890625 32.41796875 C6.87624467 28.48606363 9.00617728 24.8684673 9.265625 19.23046875 C9.18762133 13.90888534 7.40543173 10.35989124 3.890625 6.41796875 C-0.19437666 2.81951815 -4.4379678 1.7172951 -9.83203125 1.95703125 C-15.08584517 3.0204104 -19.61060224 6.4383705 -23.109375 10.41796875 Z " fill="#40DD88" transform="translate(247.109375,22.58203125)"/>
<path d="M0 0 C0.96813629 0.00141495 1.93627258 0.0028299 2.93374634 0.00428772 C6.01055049 0.0098626 9.08728053 0.02241048 12.1640625 0.03515625 C14.25650936 0.0401745 16.34895737 0.04473684 18.44140625 0.04882812 C23.55732 0.0598238 28.67317871 0.0770711 33.7890625 0.09765625 C33.7890625 0.42765625 33.7890625 0.75765625 33.7890625 1.09765625 C47.1540625 1.59265625 47.1540625 1.59265625 60.7890625 2.09765625 C58.7890625 5.09765625 58.7890625 5.09765625 56.06079102 5.76538086 C52.84611953 6.09186156 49.67073917 6.30472799 46.44140625 6.4140625 C45.20914307 6.4560376 43.97687988 6.4980127 42.70727539 6.54125977 C41.39364014 6.58049561 40.08000488 6.61973145 38.7265625 6.66015625 C37.71817825 6.69192459 37.71817825 6.69192459 36.68942261 6.72433472 C22.05490042 7.18096794 7.42989483 7.204716 -7.2109375 7.09765625 C-7.5409375 6.43765625 -7.8709375 5.77765625 -8.2109375 5.09765625 C-7.5509375 5.09765625 -6.8909375 5.09765625 -6.2109375 5.09765625 C-6.2109375 4.43765625 -6.2109375 3.77765625 -6.2109375 3.09765625 C-9.5109375 2.76765625 -12.8109375 2.43765625 -16.2109375 2.09765625 C-16.2109375 1.76765625 -16.2109375 1.43765625 -16.2109375 1.09765625 C-10.77825256 -0.03841173 -5.52027147 -0.0305876 0 0 Z " fill="#65E553" transform="translate(504.2109375,103.90234375)"/>
<path d="M0 0 C2.87029869 1.79393668 4.49131638 2.98263276 6 6 C6 8.64 6 11.28 6 14 C-2.415 14.495 -2.415 14.495 -11 15 C-10.01 16.32 -9.02 17.64 -8 19 C-3.44551506 19.50605388 -0.11266723 18.99402048 4 17 C4 18.32 4 19.64 4 21 C0.66867488 23.91490948 -2.59319814 24.58435935 -7 24.42578125 C-10.65181676 23.6483437 -12.45048434 21.67388228 -15 19 C-16.24133624 15.27599129 -16.54111486 11.86824 -16 8 C-12.09064619 0.7205136 -7.95156276 -1.17180925 0 0 Z " fill="#22E4B3" transform="translate(441,132)"/>
<path d="M0 0 C0.66 0 1.32 0 2 0 C3.32 7.59 4.64 15.18 6 23 C7.53521956 20.69717067 8.58357909 18.82137765 9.625 16.3125 C10.07875 15.219375 10.5325 14.12625 11 13 C17.82423338 14.23416987 24.39367844 15.8915995 31 18 C31 18.66 31 19.32 31 20 C28.74971671 19.85860519 26.49977794 19.71171997 24.25 19.5625 C22.37054688 19.44068359 22.37054688 19.44068359 20.453125 19.31640625 C17.81682447 19.07484478 15.51962706 18.75716066 13 18 C12.72414063 18.84820312 12.44828125 19.69640625 12.1640625 20.5703125 C10.98545009 24.04286854 9.70069594 27.45609995 8.375 30.875 C7.92898438 32.02742188 7.48296875 33.17984375 7.0234375 34.3671875 C6.68570312 35.23601562 6.34796875 36.10484375 6 37 C5.34 37 4.68 37 4 37 C3.49356447 34.77228658 2.9951038 32.54275924 2.5 30.3125 C2.08234375 28.45044922 2.08234375 28.45044922 1.65625 26.55078125 C1.10645874 23.57601782 0.86204295 21.00631398 1 18 C0.34 18 -0.32 18 -1 18 C-1.33 20.97 -1.66 23.94 -2 27 C-4.88967215 25.55516393 -6.85833768 24.4211581 -9.3125 22.5 C-12.77000278 19.96300121 -15.83417602 18.93518497 -20 18 C-20 17.34 -20 16.68 -20 16 C-18.41753293 15.91846067 -16.83383727 15.86056443 -15.25 15.8125 C-14.36828125 15.77769531 -13.4865625 15.74289063 -12.578125 15.70703125 C-9.52389051 16.05410335 -8.19435701 16.88254802 -6 19 C-6 19.66 -6 20.32 -6 21 C-5.34 21 -4.68 21 -4 21 C-3.896875 19.7625 -3.79375 18.525 -3.6875 17.25 C-3.04831894 11.35637468 -1.53722003 5.71381786 0 0 Z " fill="#25DFAB" transform="translate(339,122)"/>
<path d="M0 0 C7.40424077 0.31507408 12.5213883 3.69901954 17.8359375 8.7421875 C21.01920772 12.23602067 22.86058503 15.32839864 24 20 C20.25474201 23.74525799 16.01729091 23.68909949 11 24 C10.78085938 23.45730469 10.56171875 22.91460937 10.3359375 22.35546875 C8.63077474 18.50845521 7.61536306 16.39742198 4 14.0625 C1.65935234 13.23352062 -0.59300441 12.57581145 -3 12 C-2.88541307 10.56163249 -2.75790884 9.12429034 -2.625 7.6875 C-2.55539063 6.88699219 -2.48578125 6.08648437 -2.4140625 5.26171875 C-2 3 -2 3 0 0 Z " fill="#3EDD80" transform="translate(227,31)"/>
<path d="M0 0 C8.91961355 -0.02329364 17.83921644 -0.04100111 26.75885391 -0.05181217 C30.90174697 -0.05700407 35.04461902 -0.06403363 39.1875 -0.07543945 C43.1945796 -0.08640084 47.20163916 -0.09230457 51.2087326 -0.09487724 C52.72833318 -0.09670784 54.24793281 -0.10028182 55.76752472 -0.10573006 C75.59403268 -0.17390969 75.59403268 -0.17390969 82 1 C82.99 1.99 82.99 1.99 84 3 C79.51288178 3.86927051 75.27698361 4.12153857 70.70947266 4.11352539 C69.6547728 4.11374443 69.6547728 4.11374443 68.57876587 4.1139679 C66.27383245 4.11327584 63.96898166 4.1055168 61.6640625 4.09765625 C60.05838058 4.09578956 58.45269808 4.09436684 56.84701538 4.09336853 C52.63517668 4.08956315 48.42337284 4.07974988 44.21154785 4.06866455 C39.90796378 4.05840777 35.60437404 4.05386179 31.30078125 4.04882812 C22.86717156 4.03812573 14.43359013 4.02107322 6 4 C6.33 3.34 6.66 2.68 7 2 C4.69 1.67 2.38 1.34 0 1 C0 0.67 0 0.34 0 0 Z " fill="#07CAC3" transform="translate(135,107)"/>
<path d="M0 0 C3 0.125 3 0.125 4 1.125 C4.08851529 3.71859322 4.11525945 6.28539691 4.09765625 8.87890625 C4.0962413 9.65435287 4.09482635 10.4297995 4.09336853 11.22874451 C4.08775345 13.71503494 4.07519846 16.2012366 4.0625 18.6875 C4.05748694 20.36913933 4.0529237 22.05078006 4.04882812 23.73242188 C4.03777913 27.86331566 4.02050445 31.99414276 4 36.125 C1.125 36.75 1.125 36.75 -2 37.125 C-4.49742403 34.62757597 -4.23676464 33.14782389 -4.25224304 29.74021912 C-4.24505753 29.00997025 -4.23787201 28.27972137 -4.23046875 27.52734375 C-4.22978142 26.40314781 -4.22978142 26.40314781 -4.2290802 25.25624084 C-4.22605811 23.67170631 -4.21817306 22.08717474 -4.20581055 20.50268555 C-4.18754683 18.06874142 -4.18530089 15.63517738 -4.18554688 13.20117188 C-4.18063201 11.66405919 -4.17480382 10.1269491 -4.16796875 8.58984375 C-4.16685593 7.85757065 -4.1657431 7.12529755 -4.16459656 6.37083435 C-4.10592702 0.17108029 -4.10592702 0.17108029 0 0 Z " fill="#11080A" transform="translate(382,120.875)"/>
<path d="M0 0 C3.3125 2.0625 3.3125 2.0625 6 5 C6.33 7.31 6.66 9.62 7 12 C1.06 12 -4.88 12 -11 12 C-9.34922098 15.75170424 -9.34922098 15.75170424 -7 19 C-0.91531443 19.23376923 -0.91531443 19.23376923 5 18 C4 21 4 21 2 22 C-1.40814662 22.47653732 -4.59768384 22.54479788 -8 22 C-11.39823487 19.3493768 -12.64988509 17.95652452 -13.3984375 13.7734375 C-13.60128378 9.10797295 -13.11137354 5.66697595 -10 2 C-6.78446554 -0.32849047 -3.88978623 -0.54457007 0 0 Z " fill="#56E78D" transform="translate(554,132)"/>
<path d="M0 0 C0.33 0 0.66 0 1 0 C1 7.92 1 15.84 1 24 C2.65 24 4.3 24 6 24 C6 16.41 6 8.82 6 1 C6.33 1 6.66 1 7 1 C7.33 3.64 7.66 6.28 8 9 C8.66 9 9.32 9 10 9 C9.649375 8.401875 9.29875 7.80375 8.9375 7.1875 C8 5 8 5 9 2 C10.13169701 4.35114592 11.25541381 6.70559335 12.375 9.0625 C12.69210937 9.71927734 13.00921875 10.37605469 13.3359375 11.05273438 C15.34820404 15.30783967 16.82600216 19.44038214 18 24 C19.65 24 21.3 24 23 24 C22.67 24.99 22.34 25.98 22 27 C15.4 27 8.8 27 2 27 C2 26.34 2 25.68 2 25 C1.34 25 0.68 25 0 25 C0 16.75 0 8.5 0 0 Z " fill="#121012" transform="translate(392,132)"/>
<path d="M0 0 C0 0.33 0 0.66 0 1 C-0.99 1.33 -1.98 1.66 -3 2 C-0.36 2.33 2.28 2.66 5 3 C5 3.33 5 3.66 5 4 C-22.01656543 4.15279533 -48.99372968 3.74130221 -76 3 C-76 2.34 -76 1.68 -76 1 C-68.55172915 0.85474649 -61.1034013 0.71272331 -53.6550293 0.57275391 C-51.13092718 0.52496291 -48.60683802 0.47648182 -46.08276367 0.42724609 C-30.71971083 0.12810459 -15.3660832 -0.07543179 0 0 Z " fill="#00D5E9" transform="translate(86,107)"/>
<path d="M0 0 C0.66 0 1.32 0 2 0 C2 10.23 2 20.46 2 31 C1.01 31 0.02 31 -1 31 C-1.33 30.34 -1.66 29.68 -2 29 C-2.99 29.66 -3.98 30.32 -5 31 C-9.59271203 31.73965025 -13.02462089 31.60961194 -17 29.125 C-20.47902736 25.42853343 -20.38781166 22.40391772 -20.359375 17.484375 C-20 15 -20 15 -17.625 11.9375 C-13.49664944 8.89038411 -11.16178257 8.65004864 -6 9 C-4.35 9.99 -2.7 10.98 -1 12 C-0.67 8.04 -0.34 4.08 0 0 Z M-17 15 C-18.42662219 17.85324437 -18.31033868 19.83454549 -18 23 C-16.20006226 25.69990662 -14.916227 27.5418865 -12 29 C-8.38273364 29.40191848 -6.40217704 29.20108852 -3.125 27.5625 C-0.43604723 24.3199393 -0.2705768 22.32029054 -0.515625 18.1953125 C-1.31907893 14.55385194 -2.96844847 13.04300212 -6 11 C-11.0565305 10.05190053 -13.3926988 11.49576455 -17 15 Z " fill="#4FF49A" transform="translate(532,123)"/>
<path d="M0 0 C1.32 0 2.64 0 4 0 C6.31 5.61 8.62 11.22 11 17 C13.84347393 11.38990278 16.59906057 5.81280072 19 0 C20.32 0 21.64 0 23 0 C21.26628579 5.58641245 19.29423645 11.06787618 17.125 16.5 C16.65320313 17.7065625 16.18140625 18.913125 15.6953125 20.15625 C14 23 14 23 11.39404297 23.67773438 C10.60400879 23.78408203 9.81397461 23.89042969 9 24 C7.49115787 20.56631406 5.99446599 17.12746451 4.5 13.6875 C4.07074219 12.71103516 3.64148438 11.73457031 3.19921875 10.72851562 C2.79316406 9.79072266 2.38710938 8.85292969 1.96875 7.88671875 C1.40317383 6.59060669 1.40317383 6.59060669 0.82617188 5.26831055 C0 3 0 3 0 0 Z " fill="#1EECC4" transform="translate(401,132)"/>
<path d="M0 0 C6.26168637 2.83328371 12.06021604 7.59643922 16.890625 12.41796875 C16.890625 13.40796875 16.890625 14.39796875 16.890625 15.41796875 C16.25125 15.25296875 15.611875 15.08796875 14.953125 14.91796875 C13.08235679 14.37870208 13.08235679 14.37870208 11.890625 14.41796875 C11.890625 17.38796875 11.890625 20.35796875 11.890625 23.41796875 C10.900625 23.08796875 9.910625 22.75796875 8.890625 22.41796875 C8.79265625 21.76570313 8.6946875 21.1134375 8.59375 20.44140625 C7.65104118 14.93143573 6.67907402 10.73259124 2.890625 6.41796875 C-1.85158654 3.10944907 -6.49379632 2.52136375 -12.109375 3.41796875 C-14.99409699 4.52306125 -17.42390726 5.85551479 -20.109375 7.41796875 C-20.769375 6.75796875 -21.429375 6.09796875 -22.109375 5.41796875 C-15.174801 -0.36084292 -9.04323798 -2.49526381 0 0 Z " fill="#56E771" transform="translate(247.109375,22.58203125)"/>
<path d="M0 0 C3.58552881 1.63687185 4.79315055 2.68972583 7 6 C7.71207438 10.88516144 7.72852643 14.8100735 5.125 19.0625 C1.56729402 22.30629075 -1.07412967 22.33052231 -5.73828125 22.29296875 C-9.0542278 21.86344199 -10.74987627 20.39075646 -13 18 C-14.84862688 14.30274625 -14.47587094 10.03538558 -14 6 C-10.37239704 0.07491517 -6.72377205 -0.73561422 0 0 Z M-9.875 4.0625 C-12.5386368 7.74458617 -12.63697621 9.54116653 -12 14 C-10.25271222 17.72803465 -10.25271222 17.72803465 -7 20 C-2.66672826 20.49055907 -0.67999656 20.47744439 2.9375 17.9375 C5.53327109 14.2404927 5.71253588 12.43355658 5 8 C3.20437595 5.24670979 1.94745078 3.47372539 -1 2 C-5.0130324 1.46492901 -6.53928033 1.66948372 -9.875 4.0625 Z " fill="#3FEDA7" transform="translate(500,132)"/>
<path d="M0 0 C4.393125 -0.061875 4.393125 -0.061875 8.875 -0.125 C9.79651855 -0.14320801 10.71803711 -0.16141602 11.66748047 -0.18017578 C12.39338379 -0.1851709 13.11928711 -0.19016602 13.8671875 -0.1953125 C14.98262939 -0.21102295 14.98262939 -0.21102295 16.12060547 -0.22705078 C18 0 18 0 20 2 C19 3 19 3 17.23413086 3.11352539 C16.48526611 3.10828857 15.73640137 3.10305176 14.96484375 3.09765625 C13.87224243 3.09390991 13.87224243 3.09390991 12.75756836 3.09008789 C11.8269458 3.08098389 10.89632324 3.07187988 9.9375 3.0625 C5.5134375 3.0315625 5.5134375 3.0315625 1 3 C1 10.92 1 18.84 1 27 C7.11797738 26.92102901 7.11797738 26.92102901 13.2355957 26.81982422 C13.99960693 26.8148291 14.76361816 26.80983398 15.55078125 26.8046875 C16.72120972 26.78897705 16.72120972 26.78897705 17.9152832 26.77294922 C20 27 20 27 23 29 C20.11734851 29.96088383 18.32337729 30.11670941 15.33203125 30.09765625 C14.52741455 30.09515869 13.72279785 30.09266113 12.89379883 30.09008789 C11.36855591 30.07643188 11.36855591 30.07643188 9.8125 30.0625 C4.9553125 30.0315625 4.9553125 30.0315625 0 30 C0 20.1 0 10.2 0 0 Z " fill="#242526" transform="translate(64,26)"/>
<path d="M0 0 C4.33756144 -0.02505701 8.67508251 -0.04302559 13.01269531 -0.05493164 C14.48275488 -0.05990456 15.95280965 -0.06668527 17.42285156 -0.07543945 C37.54138179 -0.1920885 37.54138179 -0.1920885 44 1 C44.66 1.66 45.32 2.32 46 3 C41.41443228 3.89663672 37.0829778 4.11633191 32.4140625 4.09765625 C31.71227875 4.0962413 31.010495 4.09482635 30.28744507 4.09336853 C28.06658496 4.0878129 25.84582916 4.07526892 23.625 4.0625 C22.11067855 4.05747926 20.5963555 4.05291736 19.08203125 4.04882812 C15.38798748 4.03785807 11.69400394 4.02062449 8 4 C7.67 3.34 7.34 2.68 7 2 C4.67843403 1.59270772 2.3431213 1.25561323 0 1 C0 0.67 0 0.34 0 0 Z " fill="#0ECAB4" transform="translate(173,107)"/>
<path d="M0 0 C1.32 0 2.64 0 4 0 C4 11.22 4 22.44 4 34 C2.68 34 1.36 34 0 34 C0 22.78 0 11.56 0 0 Z " fill="#21EDBA" transform="translate(380,122)"/>
<path d="M0 0 C0.99 0.66 1.98 1.32 3 2 C2.67 2.99 2.34 3.98 2 5 C1.01 4.34 0.02 3.68 -1 3 C-3.9149255 2.4161804 -3.9149255 2.4161804 -7 3 C-10.32274404 5.45594125 -11.77618008 6.9256644 -12.625 11 C-11.76814736 15.11289267 -10.42264067 16.59686932 -7 19 C-3.31704471 18.87300154 -0.48055442 18.16018481 3 17 C2.6875 18.9375 2.6875 18.9375 2 21 C-2.56598329 22.52199443 -6.39892714 22.74716734 -10.8125 20.6875 C-13.44105579 18.65975696 -14.83542805 17.02207843 -15.37109375 13.6953125 C-15.55153462 6.71118938 -15.55153462 6.71118938 -12.625 2.9375 C-8.49407232 -0.11151805 -5.08280112 -0.59383221 0 0 Z " fill="#33E6AF" transform="translate(478,132)"/>
<path d="M0 0 C2 2 2 2 2.1875 5.5625 C2 9 2 9 1 10 C-1.32817964 10.36760731 -3.6618385 10.70241581 -6 11 C-6 11.66 -6 12.32 -6 13 C-5.34 13.66 -4.68 14.32 -4 15 C-5 16 -5 16 -8.875 16.25 C-12.692383 16.18853945 -12.692383 16.18853945 -14.9375 14.8125 C-16 13 -16 13 -17 8 C-11.06 8 -5.12 8 1 8 C0.67 5.36 0.34 2.72 0 0 Z " fill="#0F1313" transform="translate(560,136)"/>
<path d="M0 0 C1.32 0 2.64 0 4 0 C4 7.92 4 15.84 4 24 C2.68 24 1.36 24 0 24 C0 16.08 0 8.16 0 0 Z " fill="#1BE6BC" transform="translate(393,132)"/>
<path d="M0 0 C0.66 0 1.32 0 2 0 C4.53859104 5.07718207 3 11.32353788 3 17 C16.2 17 29.4 17 43 17 C43 17.33 43 17.66 43 18 C28.81 18.33 14.62 18.66 0 19 C0 12.73 0 6.46 0 0 Z " fill="#222427" transform="translate(516,59)"/>
<path d="M0 0 C2.63995097 0.07186799 3.79303107 0.14408192 6.0625 1.5625 C7.0625 3.3125 7.0625 3.3125 7.0625 7.3125 C2.1125 7.3125 -2.8375 7.3125 -7.9375 7.3125 C-5.17684426 0.41086066 -5.17684426 0.41086066 0 0 Z " fill="#0F1111" transform="translate(550.9375,134.6875)"/>
<path d="M0 0 C0.680625 0.825 1.36125 1.65 2.0625 2.5 C4.80976644 5.30127117 4.80976644 5.30127117 8.5 5.4375 C11.71048591 5.03618926 14.10438607 4.40393403 17 3 C17 4.32 17 5.64 17 7 C13.66708061 9.91630447 10.41035583 10.57128215 6.00390625 10.4375 C2.44694717 9.66093194 0.53370459 7.53370459 -2 5 C-1.34 3.35 -0.68 1.7 0 0 Z " fill="#17DDB6" transform="translate(428,146)"/>
<path d="M0 0 C1.58246707 -0.08153933 3.16616273 -0.13943557 4.75 -0.1875 C6.07257813 -0.23970703 6.07257813 -0.23970703 7.421875 -0.29296875 C10.47610949 0.05410335 11.80564299 0.88254802 14 3 C14 3.66 14 4.32 14 5 C14.66 5 15.32 5 16 5 C16 4.01 16 3.02 16 2 C16.99 2 17.98 2 19 2 C18.67 4.97 18.34 7.94 18 11 C15.11032785 9.55516393 13.14166232 8.4211581 10.6875 6.5 C7.22999722 3.96300121 4.16582398 2.93518497 0 2 C0 1.34 0 0.68 0 0 Z " fill="#20DEAF" transform="translate(319,138)"/>
<path d="M0 0 C-0.66 4.62 -1.32 9.24 -2 14 C-2.99 13.67 -3.98 13.34 -5 13 C-4.34 9.7 -3.68 6.4 -3 3 C-6.70350129 4.39805493 -10.10457342 6.07625781 -13.5625 8 C-16.68131589 9.73027234 -19.79616134 11.43200367 -23 13 C-17.5532291 5.65511197 -9.56784763 0 0 0 Z " fill="#42EB8F" transform="translate(220,30)"/>
<path d="M0 0 C3.95423332 0.38021474 5.47469326 1.53719326 8.25 4.3125 C8.25 4.9725 8.25 5.6325 8.25 6.3125 C3.3 6.3125 -1.65 6.3125 -6.75 6.3125 C-3.17926829 0.36128049 -3.17926829 0.36128049 0 0 Z " fill="#141110" transform="translate(435.75,135.6875)"/>
<path d="M0 0 C0.33 0.66 0.66 1.32 1 2 C5.95 2 10.9 2 16 2 C16.33 1.34 16.66 0.68 17 0 C17.33 1.32 17.66 2.64 18 4 C18.33 2.68 18.66 1.36 19 0 C19 1.98 19 3.96 19 6 C14.05 6 9.1 6 4 6 C4.66 5.67 5.32 5.34 6 5 C6 4.34 6 3.68 6 3 C5.38125 3.185625 4.7625 3.37125 4.125 3.5625 C2 4 2 4 0 3 C0 2.01 0 1.02 0 0 Z " fill="#21E8B5" transform="translate(428,140)"/>
<path d="M0 0 C0.66 0 1.32 0 2 0 C2.6271777 7.99651568 2.6271777 7.99651568 0.125 12 C-3.42258164 15.33890036 -6.09157028 15.32353106 -10.80078125 15.30078125 C-13 15 -13 15 -15.5625 13 C-16.2740625 12.01 -16.2740625 12.01 -17 11 C-14 11 -14 11 -12 12 C-8.22677712 12.34937249 -5.877399 12.55414674 -2.625 10.5 C-0.34020899 6.9849369 -0.27769946 4.1654919 0 0 Z " fill="#3CEEB1" transform="translate(505,139)"/>
<path d="M0 0 C1.32 0 2.64 0 4 0 C4.89395329 1.90790032 5.76459334 3.82673806 6.625 5.75 C7.11226563 6.81734375 7.59953125 7.8846875 8.1015625 8.984375 C9 12 9 12 8.1484375 14.390625 C7.76945312 14.92171875 7.39046875 15.4528125 7 16 C2.84730044 11.41771083 0 6.26551193 0 0 Z " fill="#1CDBB1" transform="translate(401,132)"/>
<path d="M0 0 C0.55674145 2.14743131 1.03730778 4.2425006 1.375 6.4375 C2.14993822 9.61474671 2.81250615 11.53024888 5 14 C9.23842434 14.40365946 12.93098831 14.35633723 17 13 C16 16 16 16 14 17 C10.59185338 17.47653732 7.40231616 17.54479788 4 17 C0.55911423 14.3161091 -0.72606095 12.94692396 -1.328125 8.66796875 C-1.44031882 2.88063764 -1.44031882 2.88063764 0 0 Z " fill="#4DEA99" transform="translate(542,137)"/>
<path d="M0 0 C0.66 0 1.32 0 2 0 C2.2475 1.093125 2.495 2.18625 2.75 3.3125 C3.70775258 6.90124761 3.70775258 6.90124761 5.625 8.875 C9.0602301 10.50221426 12.21647941 10.68470662 16 11 C15.67 11.66 15.34 12.32 15 13 C7.00348432 13.6271777 7.00348432 13.6271777 3 11.125 C-0.44469702 7.46500941 -0.09129682 4.9300282 0 0 Z " fill="#46EDA4" transform="translate(512,141)"/>
<path d="M0 0 C2 2 2 2 2.1875 5.5625 C2 9 2 9 1 10 C-1.69654854 10.07319621 -4.36691458 10.09242537 -7.0625 10.0625 C-8.20041992 10.05573242 -8.20041992 10.05573242 -9.36132812 10.04882812 C-11.24091871 10.0370068 -13.12046899 10.01907078 -15 10 C-15.33 10.66 -15.66 11.32 -16 12 C-16.33 10.68 -16.66 9.36 -17 8 C-11.06 8 -5.12 8 1 8 C0.67 5.36 0.34 2.72 0 0 Z " fill="#0B090A" transform="translate(560,136)"/>
<path d="M0 0 C0 3.3 0 6.6 0 10 C-2 9 -2 9 -4 6 C-4.33 6.33 -4.66 6.66 -5 7 C-6.99958364 7.04080783 -9.00045254 7.04254356 -11 7 C-11 6.01 -11 5.02 -11 4 C-9.906875 3.71125 -8.81375 3.4225 -7.6875 3.125 C-5.48441433 2.45287217 -2.08910496 0 0 0 Z " fill="#39DC8B" transform="translate(254,58)"/>
<path d="M0 0 C0.33 0 0.66 0 1 0 C1 1.65 1 3.3 1 5 C-8.405 5.495 -8.405 5.495 -18 6 C-17.67 4.68 -17.34 3.36 -17 2 C-12.05 2.33 -7.1 2.66 -2 3 C-1.67 2.34 -1.34 1.68 -1 1 C-0.67 0.67 -0.34 0.34 0 0 Z " fill="#53EA90" transform="translate(560,139)"/>
<path d="M0 0 C3.67853853 0.73570771 7.1664289 1.65298844 10.75 2.75 C10.75 3.41 10.75 4.07 10.75 4.75 C8.47858891 4.63597936 6.20785448 4.50841495 3.9375 4.375 C2.67292969 4.30539063 1.40835937 4.23578125 0.10546875 4.1640625 C-3.25 3.75 -3.25 3.75 -6.25 1.75 C-3.25 -0.25 -3.25 -0.25 0 0 Z " fill="#29EDB7" transform="translate(359.25,137.25)"/>
<path d="M0 0 C2.78649808 0.90372911 4.72051967 1.7391517 6.875 3.75 C8.40522445 6.8104489 7.81209929 8.75160284 7 12 C6.34 11.67 5.68 11.34 5 11 C5.33 10.01 5.66 9.02 6 8 C5.401875 7.731875 4.80375 7.46375 4.1875 7.1875 C2.02775192 6.01506533 0.64209744 4.80630718 -1 3 C-0.67 2.01 -0.34 1.02 0 0 Z " fill="#24D5A1" transform="translate(439,132)"/>
<path d="M0 0 C1.18851563 0.10183594 2.37703125 0.20367188 3.6015625 0.30859375 C4.51679688 0.39238281 5.43203125 0.47617187 6.375 0.5625 C6.375 0.8925 6.375 1.2225 6.375 1.5625 C5.43140625 1.60117187 5.43140625 1.60117187 4.46875 1.640625 C-1.85515102 2.05967868 -6.13058326 3.4082978 -11.625 6.5625 C-12.285 5.9025 -12.945 5.2425 -13.625 4.5625 C-8.4657692 0.35365382 -6.67919569 -0.5893408 0 0 Z " fill="#52F07F" transform="translate(238.625,23.4375)"/>
<path d="M0 0 C1.32 0 2.64 0 4 0 C3.54738642 1.43931117 3.08767021 2.87638999 2.625 4.3125 C2.36976563 5.11300781 2.11453125 5.91351563 1.8515625 6.73828125 C0.76332919 9.62858898 -0.17366732 11.58683366 -3 13 C-2.88490339 11.58249437 -2.75746342 10.16598831 -2.625 8.75 C-2.55539062 7.96109375 -2.48578125 7.1721875 -2.4140625 6.359375 C-1.98492887 3.914123 -1.21399362 2.15163097 0 0 Z " fill="#21DFB1" transform="translate(420,132)"/>
<path d="M0 0 C0.66 0 1.32 0 2 0 C2.8723412 2.99480917 3.10829766 5.63575911 3.0625 8.75 C3.05347656 9.54921875 3.04445313 10.3484375 3.03515625 11.171875 C3.01775391 12.07679688 3.01775391 12.07679688 3 13 C0.9375 11.5625 0.9375 11.5625 -1 9 C-1.05823431 5.92416977 -0.59222907 3.01264352 0 0 Z " fill="#29DFA4" transform="translate(339,122)"/>
<path d="M0 0 C6.24675325 6.07792208 6.24675325 6.07792208 8 9 C7.67 9.99 7.34 10.98 7 12 C1.39 11.67 -4.22 11.34 -10 11 C-10 10.67 -10 10.34 -10 10 C-5.05 9.67 -0.1 9.34 5 9 C3.7625 7.329375 3.7625 7.329375 2.5 5.625 C0 2.25 0 2.25 0 0 Z " fill="#2B2C2E" transform="translate(108,81)"/>
<path d="M0 0 C0.99 0.33 1.98 0.66 3 1 C2.3125 2.9375 2.3125 2.9375 1 5 C-1.625 5.75 -1.625 5.75 -4 6 C-4 5.67 -4 5.34 -4 5 C-5.134375 4.87625 -6.26875 4.7525 -7.4375 4.625 C-8.613125 4.41875 -9.78875 4.2125 -11 4 C-11.33 3.34 -11.66 2.68 -12 2 C-11.07767578 2.03480469 -11.07767578 2.03480469 -10.13671875 2.0703125 C-8.92435547 2.09738281 -8.92435547 2.09738281 -7.6875 2.125 C-6.48673828 2.15980469 -6.48673828 2.15980469 -5.26171875 2.1953125 C-2.71611424 2.15817322 -2.71611424 2.15817322 0 0 Z " fill="#18EAC7" transform="translate(443,149)"/>
<path d="M0 0 C2.5 1 2.5 1 5 3 C5.46837899 5.79374292 5.23424505 8.14221036 5 11 C6.65 9.68 8.3 8.36 10 7 C9.34 8.65 8.68 10.3 8 12 C6.68 12 5.36 12 4 12 C3.32645501 10.56570999 2.66140299 9.12742943 2 7.6875 C1.62875 6.88699219 1.2575 6.08648437 0.875 5.26171875 C0 3 0 3 0 0 Z " fill="#1BEDC9" transform="translate(406,144)"/>
<path d="M0 0 C0 2.79784711 -0.37195775 4.9790678 -1 7.6875 C-1.185625 8.49574219 -1.37125 9.30398437 -1.5625 10.13671875 C-1.706875 10.75160156 -1.85125 11.36648437 -2 12 C0.97 12.495 0.97 12.495 4 13 C3.360625 13.2475 2.72125 13.495 2.0625 13.75 C-0.18741541 14.81562433 -0.18741541 14.81562433 -0.75 17.125 C-0.8325 17.74375 -0.915 18.3625 -1 19 C-3.35199995 14.4430001 -3.62635454 10.01991396 -3 5 C-1.5 1.9375 -1.5 1.9375 0 0 Z " fill="#1A3722" transform="translate(226,31)"/>
<path d="M0 0 C2.1484375 0.94140625 2.1484375 0.94140625 4 2 C2.25048432 2.95921722 0.50036756 3.91733817 -1.25 4.875 C-2.71179688 5.67550781 -2.71179688 5.67550781 -4.203125 6.4921875 C-6.45130408 7.70419466 -8.7072805 8.87547567 -11 10 C-4.41767491 1.74381904 -4.41767491 1.74381904 0 0 Z " fill="#3BE38D" transform="translate(208,33)"/>
<path d="M0 0 C0.99 0 1.98 0 3 0 C4.20272819 2.40545638 4.10071472 3.94996953 4.0625 6.625 C4.05347656 7.44226562 4.04445313 8.25953125 4.03515625 9.1015625 C4.02355469 9.72804688 4.01195312 10.35453125 4 11 C3.01 10.67 2.02 10.34 1 10 C0.67 6.7 0.34 3.4 0 0 Z " fill="#53F27F" transform="translate(255,35)"/>
<path d="M0 0 C0.08090971 1.62418745 0.13914995 3.24951745 0.1875 4.875 C0.22230469 5.77992188 0.25710938 6.68484375 0.29296875 7.6171875 C0.19628906 8.40351563 0.09960938 9.18984375 0 10 C-0.99 10.66 -1.98 11.32 -3 12 C-4.37058195 7.88825414 -3.75640862 5.26339405 -3 1 C-1 0 -1 0 0 0 Z " fill="#172E23" transform="translate(510,139)"/>
<path d="M0 0 C-4.69978858 3.97674419 -4.69978858 3.97674419 -8.40234375 4.04296875 C-10.62710829 3.77937106 -12.80547311 3.44865883 -15 3 C-15 2.67 -15 2.34 -15 2 C-14.37351563 1.86722656 -13.74703125 1.73445313 -13.1015625 1.59765625 C-12.28429687 1.42105469 -11.46703125 1.24445312 -10.625 1.0625 C-9.81289062 0.88847656 -9.00078125 0.71445312 -8.1640625 0.53515625 C-2.71108179 -0.81332454 -2.71108179 -0.81332454 0 0 Z " fill="#42EE97" transform="translate(253,56)"/>
<path d="M0 0 C0.33 0 0.66 0 1 0 C1.33 3.96 1.66 7.92 2 12 C1.01 12.495 1.01 12.495 0 13 C-2.32590854 9.36576791 -2.16265833 6.22911669 -2 2 C-1.34 2 -0.68 2 0 2 C0 1.34 0 0.68 0 0 Z " fill="#13261D" transform="translate(485,137)"/>
<path d="M0 0 C0.33 0 0.66 0 1 0 C2.33257403 9.41002278 2.33257403 9.41002278 1 14 C0.34 13.34 -0.32 12.68 -1 12 C-1.99 12.495 -1.99 12.495 -3 13 C-3.66 12.34 -4.32 11.68 -5 11 C-4.360625 10.67 -3.72125 10.34 -3.0625 10 C0.0552764 6.97670168 -0.27956936 4.26343276 0 0 Z " fill="#3DBD7C" transform="translate(531,140)"/>
<path d="M0 0 C0.99 0 1.98 0 3 0 C2.69320312 0.55171875 2.38640625 1.1034375 2.0703125 1.671875 C0.90557059 4.20540121 0.37942044 6.51171762 -0.125 9.25 C-0.29257813 10.14203125 -0.46015625 11.0340625 -0.6328125 11.953125 C-0.75398437 12.62859375 -0.87515625 13.3040625 -1 14 C-1.33 14 -1.66 14 -2 14 C-3.43481543 6.0652978 -3.43481543 6.0652978 -1.75 1.9375 C-1.1725 1.298125 -0.595 0.65875 0 0 Z " fill="#41E481" transform="translate(224,29)"/>
<path d="M0 0 C2.0625 0.4375 2.0625 0.4375 4 1 C3.67 2.65 3.34 4.3 3 6 C1.68 6 0.36 6 -1 6 C-1.042721 4.33388095 -1.04063832 2.66617115 -1 1 C-0.67 0.67 -0.34 0.34 0 0 Z " fill="#1DE4B9" transform="translate(394,122)"/>
<path d="M0 0 C0.33 0 0.66 0 1 0 C0.66556792 6.46568686 -0.33545709 9.44922643 -5 14 C-5.66 14 -6.32 14 -7 14 C-5.28379115 10.44499595 -3.18987081 7.28480622 -1 4 C-0.36707617 1.88719655 -0.36707617 1.88719655 0 0 Z " fill="#0A0808" transform="translate(255,41)"/>
<path d="M0 0 C2.31 1.98 4.62 3.96 7 6 C6.01 6.99 5.02 7.98 4 9 C-0.00390625 4.60546875 -0.00390625 4.60546875 -1 3 C-0.67 2.01 -0.34 1.02 0 0 Z " fill="#3DE894" transform="translate(224,49)"/>
<path d="M0 0 C0.66 1.32 1.32 2.64 2 4 C0.71034824 5.37562854 -0.62689293 6.70766393 -2 8 C-2.66 8 -3.32 8 -4 8 C-4.6875 6.1875 -4.6875 6.1875 -5 4 C-3.47698387 2.0418364 -2.21773977 1.10886989 0 0 Z " fill="#19D5AC" transform="translate(415,147)"/>
<path d="M0 0 C0 0.99 0 1.98 0 3 C-3.52679099 5.35119399 -5.02879485 5.21443452 -9.1875 5.125 C-10.27417969 5.10695313 -11.36085937 5.08890625 -12.48046875 5.0703125 C-13.72763672 5.03550781 -13.72763672 5.03550781 -15 5 C-15 4.67 -15 4.34 -15 4 C-14.25234375 3.87882812 -13.5046875 3.75765625 -12.734375 3.6328125 C-11.74953125 3.46523438 -10.7646875 3.29765625 -9.75 3.125 C-8.77546875 2.96257813 -7.8009375 2.80015625 -6.796875 2.6328125 C-4.22735883 2.05144152 -2.27928944 1.29159735 0 0 Z " fill="#0D0D0A" transform="translate(251,57)"/>
<path d="M0 0 C0.66 0.66 1.32 1.32 2 2 C1.9765625 4.3828125 1.9765625 4.3828125 1.625 7.125 C1.51414062 8.03507813 1.40328125 8.94515625 1.2890625 9.8828125 C1.19367188 10.58148438 1.09828125 11.28015625 1 12 C-1.42336915 9.85157775 -1.96115377 9.37292383 -2.3125 6 C-2 3 -2 3 0 0 Z " fill="#26D8A3" transform="translate(342,136)"/>
<path d="M0 0 C0 0.33 0 0.66 0 1 C-1.65 1 -3.3 1 -5 1 C-5 1.66 -5 2.32 -5 3 C-6.95927063 4.7143618 -8.95880212 6.38405168 -11 8 C-11.3125 5.6875 -11.3125 5.6875 -11 3 C-7.44035648 -0.03616654 -4.57588204 -0.31924758 0 0 Z " fill="#4CD782" transform="translate(554,132)"/>
<path d="M0 0 C0.66 0.33 1.32 0.66 2 1 C1.34 4.3 0.68 7.6 0 11 C-0.66 10.67 -1.32 10.34 -2 10 C-1.67 8.35 -1.34 6.7 -1 5 C-1.66 5 -2.32 5 -3 5 C-3 3.68 -3 2.36 -3 1 C-2.01 0.67 -1.02 0.34 0 0 Z " fill="#39D57C" transform="translate(216,32)"/>
<path d="M0 0 C0.66 0 1.32 0 2 0 C2.08131463 1.43655854 2.13933559 2.8744483 2.1875 4.3125 C2.23970703 5.51326172 2.23970703 5.51326172 2.29296875 6.73828125 C2 9 2 9 -1 12 C-0.67 8.04 -0.34 4.08 0 0 Z " fill="#47F7AA" transform="translate(505,139)"/>
<path d="M0 0 C0.99 0 1.98 0 3 0 C2.67 2.97 2.34 5.94 2 9 C-2 7 -2 7 -3 5 C-2.01 5.33 -1.02 5.66 0 6 C0 4.02 0 2.04 0 0 Z " fill="#25EFBF" transform="translate(335,140)"/>
<path d="M0 0 C2.71435596 0.93305986 3.78043163 1.62673377 5.25 4.125 C5.4975 4.74375 5.745 5.3625 6 6 C5.01 6.33 4.02 6.66 3 7 C1.35 5.02 -0.3 3.04 -2 1 C-1.34 0.67 -0.68 0.34 0 0 Z " fill="#41DF93" transform="translate(501,133)"/>
<path d="M0 0 C2 1 2 1 3 3 C2.21625 3.12375 1.4325 3.2475 0.625 3.375 C-2.14057822 3.79117993 -2.14057822 3.79117993 -4 6 C-4.33 4.68 -4.66 3.36 -5 2 C-2.625 0.9375 -2.625 0.9375 0 0 Z " fill="#28D297" transform="translate(355,136)"/>
<path d="M0 0 C1.10844919 3.32534757 0.84454356 5.62182575 0 9 C-0.33 8.34 -0.66 7.68 -1 7 C-1.99 6.67 -2.98 6.34 -4 6 C-2.84826645 3.53199953 -1.95216435 1.95216435 0 0 Z " fill="#26CC94" transform="translate(342,132)"/>
<path d="M0 0 C1.32 0.66 2.64 1.32 4 2 C4 2.99 4 3.98 4 5 C4.3062434 6.33981486 4.63451555 7.67511887 5 9 C0.125 4.25 0.125 4.25 -1 2 C-0.67 1.34 -0.34 0.68 0 0 Z " fill="#58F275" transform="translate(250,25)"/>
<path d="M0 0 C-1 3 -1 3 -3 4 C-5.3329866 4.04022391 -7.66706666 4.04320247 -10 4 C-8.66666667 3.33333333 -7.33333333 2.66666667 -6 2 C-5.29875 1.62875 -4.5975 1.2575 -3.875 0.875 C-2 0 -2 0 0 0 Z " fill="#4CF1A6" transform="translate(559,150)"/>
<path d="M0 0 C1.98 0 3.96 0 6 0 C5.34 1.32 4.68 2.64 4 4 C2.35 3.67 0.7 3.34 -1 3 C-0.67 2.01 -0.34 1.02 0 0 Z " fill="#161A1B" transform="translate(545,146)"/>
<path d="M0 0 C1.5625 1.5625 1.5625 1.5625 3 4 C2.6875 7.75 2.6875 7.75 2 11 C-0.67927341 6.98108988 -0.15601248 4.75838077 0 0 Z " fill="#110C08" transform="translate(344,137)"/>
<path d="M0 0 C0.99 0.33 1.98 0.66 3 1 C3.33 3.31 3.66 5.62 4 8 C2 6.25 2 6.25 0 4 C0 2.68 0 1.36 0 0 Z " fill="#49E68A" transform="translate(530,135)"/>
<path d="M0 0 C-2.40921705 2.40921705 -4.94334509 3.53812156 -8 5 C-7.625 2.5625 -7.625 2.5625 -7 0 C-4.3333581 -1.33332095 -2.83319697 -0.67102033 0 0 Z " fill="#23D29E" transform="translate(437,133)"/>
<path d="M0 0 C2.64 0.33 5.28 0.66 8 1 C8 1.66 8 2.32 8 3 C5.36 3 2.72 3 0 3 C0 2.01 0 1.02 0 0 Z " fill="#35CD84" transform="translate(236,58)"/>
<path d="M0 0 C1.875 0.125 1.875 0.125 4 1 C5.25 4.0625 5.25 4.0625 6 7 C4.125 6.875 4.125 6.875 2 6 C0.75 2.9375 0.75 2.9375 0 0 Z " fill="#4DDC6A" transform="translate(252,28)"/>
<path d="M0 0 C1.32 1.65 2.64 3.3 4 5 C3.34 5.66 2.68 6.32 2 7 C0.4375 5.75 0.4375 5.75 -1 4 C-0.6875 1.8125 -0.6875 1.8125 0 0 Z " fill="#2DDCAA" transform="translate(465,146)"/>
<path d="M0 0 C0.99 0 1.98 0 3 0 C3 1.32 3 2.64 3 4 C3.66 4.33 4.32 4.66 5 5 C3.68 5.33 2.36 5.66 1 6 C0.67 4.02 0.34 2.04 0 0 Z " fill="#70E64F" transform="translate(572,111)"/>
<path d="M0 0 C0 0.33 0 0.66 0 1 C-4.29 1 -8.58 1 -13 1 C-13 0.67 -13 0.34 -13 0 C-7.85910687 -1.85072153 -5.04468729 -2.21474076 0 0 Z " fill="#6DE44A" transform="translate(570,109)"/>
<path d="M0 0 C2.97 1.98 2.97 1.98 6 4 C5.01 4.33 4.02 4.66 3 5 C2.34 6.32 1.68 7.64 1 9 C0.67 6.03 0.34 3.06 0 0 Z " fill="#12261A" transform="translate(258,35)"/>
</svg>
